<mxfile host="app.diagrams.net" modified="2023-05-09T10:43:03.720Z" agent="Mozilla/5.0 (X11; Linux x86_64; rv:109.0) Gecko/20100101 Firefox/112.0" etag="isLlb9WtaX2psyabLsi-" version="21.2.6" type="github">
  <diagram name="Page-1" id="Wfg3XRnyIgDn9pwfVtJL">
    <mxGraphModel dx="2206" dy="1215" grid="1" gridSize="10" guides="1" tooltips="1" connect="1" arrows="1" fold="1" page="1" pageScale="1" pageWidth="1654" pageHeight="2336" math="0" shadow="0">
      <root>
        <mxCell id="0" />
        <mxCell id="1" parent="0" />
        <mxCell id="kDWH9W8BgqDENdvICi3f-140" value="" style="rounded=0;whiteSpace=wrap;html=1;fillColor=none;dashed=1;" parent="1" vertex="1">
          <mxGeometry x="269.8" y="1169.5" width="289.4" height="125.5" as="geometry" />
        </mxCell>
        <mxCell id="kDWH9W8BgqDENdvICi3f-99" value="" style="rounded=0;whiteSpace=wrap;html=1;fillColor=none;dashed=1;" parent="1" vertex="1">
          <mxGeometry x="469" y="900" width="451" height="110" as="geometry" />
        </mxCell>
        <mxCell id="kDWH9W8BgqDENdvICi3f-77" value="" style="rounded=0;whiteSpace=wrap;html=1;fillColor=none;dashed=1;" parent="1" vertex="1">
          <mxGeometry x="483.4" y="704.5" width="418.2" height="110" as="geometry" />
        </mxCell>
        <mxCell id="kDWH9W8BgqDENdvICi3f-78" value="" style="sketch=0;points=[[0,0,0],[0.25,0,0],[0.5,0,0],[0.75,0,0],[1,0,0],[0,1,0],[0.25,1,0],[0.5,1,0],[0.75,1,0],[1,1,0],[0,0.25,0],[0,0.5,0],[0,0.75,0],[1,0.25,0],[1,0.5,0],[1,0.75,0]];outlineConnect=0;fontColor=#232F3E;gradientColor=#F54749;gradientDirection=north;fillColor=#C7131F;strokeColor=#ffffff;dashed=0;verticalLabelPosition=bottom;verticalAlign=top;align=center;html=1;fontSize=12;fontStyle=0;aspect=fixed;shape=mxgraph.aws4.resourceIcon;resIcon=mxgraph.aws4.network_firewall;" parent="1" vertex="1">
          <mxGeometry x="543.4" y="724.5" width="80" height="80" as="geometry" />
        </mxCell>
        <mxCell id="kDWH9W8BgqDENdvICi3f-79" value="" style="sketch=0;points=[[0,0,0],[0.25,0,0],[0.5,0,0],[0.75,0,0],[1,0,0],[0,1,0],[0.25,1,0],[0.5,1,0],[0.75,1,0],[1,1,0],[0,0.25,0],[0,0.5,0],[0,0.75,0],[1,0.25,0],[1,0.5,0],[1,0.75,0]];outlineConnect=0;fontColor=#232F3E;gradientColor=#F54749;gradientDirection=north;fillColor=#C7131F;strokeColor=#ffffff;dashed=0;verticalLabelPosition=bottom;verticalAlign=top;align=center;html=1;fontSize=12;fontStyle=0;aspect=fixed;shape=mxgraph.aws4.resourceIcon;resIcon=mxgraph.aws4.network_firewall;" parent="1" vertex="1">
          <mxGeometry x="753.4" y="724.5" width="78" height="78" as="geometry" />
        </mxCell>
        <mxCell id="kDWH9W8BgqDENdvICi3f-80" value="" style="shape=link;html=1;rounded=0;fontSize=20;entryX=0;entryY=0.5;entryDx=0;entryDy=0;entryPerimeter=0;" parent="1" target="kDWH9W8BgqDENdvICi3f-79" edge="1">
          <mxGeometry width="100" relative="1" as="geometry">
            <mxPoint x="621.4" y="763" as="sourcePoint" />
            <mxPoint x="721.4" y="763" as="targetPoint" />
          </mxGeometry>
        </mxCell>
        <mxCell id="kDWH9W8BgqDENdvICi3f-81" value="Cluster link" style="text;html=1;strokeColor=none;fillColor=none;align=center;verticalAlign=middle;whiteSpace=wrap;rounded=0;fontSize=10;" parent="1" vertex="1">
          <mxGeometry x="649.4" y="740.5" width="70" height="30" as="geometry" />
        </mxCell>
        <mxCell id="kDWH9W8BgqDENdvICi3f-82" value="&lt;div&gt;Firebox M390&lt;/div&gt;" style="text;html=1;strokeColor=none;fillColor=none;align=center;verticalAlign=middle;whiteSpace=wrap;rounded=0;fontSize=8;" parent="1" vertex="1">
          <mxGeometry x="483.4" y="744.5" width="60" height="30" as="geometry" />
        </mxCell>
        <mxCell id="kDWH9W8BgqDENdvICi3f-83" value="&lt;div&gt;Firebox M390&lt;/div&gt;" style="text;html=1;strokeColor=none;fillColor=none;align=center;verticalAlign=middle;whiteSpace=wrap;rounded=0;fontSize=8;" parent="1" vertex="1">
          <mxGeometry x="831.4000000000002" y="744.5" width="60" height="30" as="geometry" />
        </mxCell>
        <mxCell id="kDWH9W8BgqDENdvICi3f-84" value="Watchguard Firewalls" style="text;html=1;strokeColor=none;fillColor=none;align=center;verticalAlign=middle;whiteSpace=wrap;rounded=0;" parent="1" vertex="1">
          <mxGeometry x="353.1" y="744.5" width="130.3" height="30" as="geometry" />
        </mxCell>
        <mxCell id="kDWH9W8BgqDENdvICi3f-85" value="" style="image;points=[];aspect=fixed;html=1;align=center;shadow=0;dashed=0;image=img/lib/allied_telesis/switch/Switch_24_port_L3.svg;" parent="1" vertex="1">
          <mxGeometry x="640.9" y="534.5" width="74.4" height="51" as="geometry" />
        </mxCell>
        <mxCell id="kDWH9W8BgqDENdvICi3f-86" value="ITSA" style="text;html=1;strokeColor=none;fillColor=none;align=center;verticalAlign=middle;whiteSpace=wrap;rounded=0;" parent="1" vertex="1">
          <mxGeometry x="655.45" y="504.5" width="45.3" height="30" as="geometry" />
        </mxCell>
        <mxCell id="kDWH9W8BgqDENdvICi3f-87" value="" style="endArrow=none;html=1;rounded=0;entryX=0.122;entryY=0.696;entryDx=0;entryDy=0;entryPerimeter=0;exitX=0.5;exitY=0;exitDx=0;exitDy=0;exitPerimeter=0;" parent="1" source="kDWH9W8BgqDENdvICi3f-78" target="kDWH9W8BgqDENdvICi3f-85" edge="1">
          <mxGeometry width="50" height="50" relative="1" as="geometry">
            <mxPoint x="555.3" y="734.5" as="sourcePoint" />
            <mxPoint x="605.3" y="684.5" as="targetPoint" />
          </mxGeometry>
        </mxCell>
        <mxCell id="kDWH9W8BgqDENdvICi3f-88" value="" style="endArrow=none;html=1;rounded=0;entryX=0.969;entryY=0.845;entryDx=0;entryDy=0;entryPerimeter=0;exitX=0.5;exitY=0;exitDx=0;exitDy=0;exitPerimeter=0;" parent="1" source="kDWH9W8BgqDENdvICi3f-79" target="kDWH9W8BgqDENdvICi3f-85" edge="1">
          <mxGeometry width="50" height="50" relative="1" as="geometry">
            <mxPoint x="792" y="740" as="sourcePoint" />
            <mxPoint x="862" y="570" as="targetPoint" />
          </mxGeometry>
        </mxCell>
        <mxCell id="kDWH9W8BgqDENdvICi3f-123" value="" style="edgeStyle=orthogonalEdgeStyle;rounded=0;orthogonalLoop=1;jettySize=auto;html=1;entryX=-0.003;entryY=0.342;entryDx=0;entryDy=0;entryPerimeter=0;exitX=0.502;exitY=0.179;exitDx=0;exitDy=0;exitPerimeter=0;endArrow=none;endFill=0;" parent="1" source="kDWH9W8BgqDENdvICi3f-155" target="kDWH9W8BgqDENdvICi3f-85" edge="1">
          <mxGeometry relative="1" as="geometry">
            <mxPoint x="510" y="850" as="targetPoint" />
            <Array as="points">
              <mxPoint x="244" y="620" />
              <mxPoint x="560" y="620" />
              <mxPoint x="560" y="552" />
            </Array>
          </mxGeometry>
        </mxCell>
        <mxCell id="kDWH9W8BgqDENdvICi3f-89" value="" style="image;points=[];aspect=fixed;html=1;align=center;shadow=0;dashed=0;image=img/lib/allied_telesis/switch/Switch_24_port_L3.svg;" parent="1" vertex="1">
          <mxGeometry x="482.29999999999995" y="929" width="74.4" height="51" as="geometry" />
        </mxCell>
        <mxCell id="kDWH9W8BgqDENdvICi3f-90" value="&lt;div&gt;01&lt;/div&gt;" style="text;html=1;strokeColor=none;fillColor=none;align=center;verticalAlign=middle;whiteSpace=wrap;rounded=0;fontSize=8;" parent="1" vertex="1">
          <mxGeometry x="489.4999999999999" y="980" width="60" height="30" as="geometry" />
        </mxCell>
        <mxCell id="kDWH9W8BgqDENdvICi3f-91" value="" style="image;points=[];aspect=fixed;html=1;align=center;shadow=0;dashed=0;image=img/lib/allied_telesis/switch/Switch_24_port_L3.svg;" parent="1" vertex="1">
          <mxGeometry x="565.4000000000001" y="929" width="74.4" height="51" as="geometry" />
        </mxCell>
        <mxCell id="kDWH9W8BgqDENdvICi3f-92" value="02" style="text;html=1;strokeColor=none;fillColor=none;align=center;verticalAlign=middle;whiteSpace=wrap;rounded=0;fontSize=8;" parent="1" vertex="1">
          <mxGeometry x="572.5999999999999" y="980" width="60" height="30" as="geometry" />
        </mxCell>
        <mxCell id="kDWH9W8BgqDENdvICi3f-93" value="" style="image;points=[];aspect=fixed;html=1;align=center;shadow=0;dashed=0;image=img/lib/allied_telesis/switch/Switch_24_port_L3.svg;" parent="1" vertex="1">
          <mxGeometry x="658.8000000000001" y="929" width="74.4" height="51" as="geometry" />
        </mxCell>
        <mxCell id="kDWH9W8BgqDENdvICi3f-94" value="03" style="text;html=1;strokeColor=none;fillColor=none;align=center;verticalAlign=middle;whiteSpace=wrap;rounded=0;fontSize=8;" parent="1" vertex="1">
          <mxGeometry x="665.9999999999999" y="980" width="60" height="30" as="geometry" />
        </mxCell>
        <mxCell id="kDWH9W8BgqDENdvICi3f-95" value="" style="image;points=[];aspect=fixed;html=1;align=center;shadow=0;dashed=0;image=img/lib/allied_telesis/switch/Switch_24_port_L3.svg;" parent="1" vertex="1">
          <mxGeometry x="744.5000000000001" y="929" width="74.4" height="51" as="geometry" />
        </mxCell>
        <mxCell id="kDWH9W8BgqDENdvICi3f-96" value="04" style="text;html=1;strokeColor=none;fillColor=none;align=center;verticalAlign=middle;whiteSpace=wrap;rounded=0;fontSize=8;" parent="1" vertex="1">
          <mxGeometry x="751.6999999999999" y="980" width="60" height="30" as="geometry" />
        </mxCell>
        <mxCell id="kDWH9W8BgqDENdvICi3f-97" value="" style="image;points=[];aspect=fixed;html=1;align=center;shadow=0;dashed=0;image=img/lib/allied_telesis/switch/Switch_24_port_L3.svg;" parent="1" vertex="1">
          <mxGeometry x="832.3000000000001" y="929" width="74.4" height="51" as="geometry" />
        </mxCell>
        <mxCell id="kDWH9W8BgqDENdvICi3f-98" value="05" style="text;html=1;strokeColor=none;fillColor=none;align=center;verticalAlign=middle;whiteSpace=wrap;rounded=0;fontSize=8;" parent="1" vertex="1">
          <mxGeometry x="839.4999999999999" y="980" width="60" height="30" as="geometry" />
        </mxCell>
        <mxCell id="kDWH9W8BgqDENdvICi3f-100" value="Switch Stack LAN" style="text;html=1;strokeColor=none;fillColor=none;align=center;verticalAlign=middle;whiteSpace=wrap;rounded=0;" parent="1" vertex="1">
          <mxGeometry x="360" y="940" width="109" height="30" as="geometry" />
        </mxCell>
        <mxCell id="kDWH9W8BgqDENdvICi3f-105" value="" style="endArrow=none;html=1;rounded=0;exitX=0.215;exitY=0.043;exitDx=0;exitDy=0;exitPerimeter=0;" parent="1" source="kDWH9W8BgqDENdvICi3f-89" edge="1">
          <mxGeometry width="50" height="50" relative="1" as="geometry">
            <mxPoint x="510.3" y="870.5" as="sourcePoint" />
            <mxPoint x="560.3" y="820.5" as="targetPoint" />
            <Array as="points" />
          </mxGeometry>
        </mxCell>
        <mxCell id="kDWH9W8BgqDENdvICi3f-107" value="" style="endArrow=none;html=1;rounded=0;exitX=0.71;exitY=0.02;exitDx=0;exitDy=0;exitPerimeter=0;" parent="1" source="kDWH9W8BgqDENdvICi3f-89" target="kDWH9W8BgqDENdvICi3f-79" edge="1">
          <mxGeometry width="50" height="50" relative="1" as="geometry">
            <mxPoint x="528.3" y="918.5" as="sourcePoint" />
            <mxPoint x="595.5999999999999" y="829" as="targetPoint" />
            <Array as="points" />
          </mxGeometry>
        </mxCell>
        <mxCell id="kDWH9W8BgqDENdvICi3f-116" style="edgeStyle=orthogonalEdgeStyle;rounded=0;orthogonalLoop=1;jettySize=auto;html=1;entryX=0.91;entryY=-0.032;entryDx=0;entryDy=0;entryPerimeter=0;dashed=1;startArrow=oval;startFill=1;endArrow=oval;endFill=1;exitX=0.5;exitY=1;exitDx=0;exitDy=0;exitPerimeter=0;fillColor=#e51400;strokeColor=#B20000;strokeWidth=2;" parent="1" source="kDWH9W8BgqDENdvICi3f-114" target="kDWH9W8BgqDENdvICi3f-77" edge="1">
          <mxGeometry relative="1" as="geometry">
            <mxPoint x="1040" y="410" as="sourcePoint" />
            <Array as="points">
              <mxPoint x="959" y="557" />
              <mxPoint x="864" y="557" />
            </Array>
          </mxGeometry>
        </mxCell>
        <mxCell id="uT-9iHjgvGPlK6MO0-Yi-12" style="edgeStyle=orthogonalEdgeStyle;rounded=0;orthogonalLoop=1;jettySize=auto;html=1;entryX=1;entryY=0.5;entryDx=0;entryDy=0;entryPerimeter=0;dashed=1;startArrow=oval;startFill=1;endArrow=oval;endFill=1;fillColor=#e51400;strokeColor=#B20000;strokeWidth=2;" parent="1" target="uT-9iHjgvGPlK6MO0-Yi-7" edge="1">
          <mxGeometry relative="1" as="geometry">
            <Array as="points">
              <mxPoint x="960" y="730" />
              <mxPoint x="960" y="1380" />
            </Array>
            <mxPoint x="900" y="730" as="sourcePoint" />
          </mxGeometry>
        </mxCell>
        <mxCell id="kDWH9W8BgqDENdvICi3f-114" value="" style="sketch=0;points=[[0,0,0],[0.25,0,0],[0.5,0,0],[0.75,0,0],[1,0,0],[0,1,0],[0.25,1,0],[0.5,1,0],[0.75,1,0],[1,1,0],[0,0.25,0],[0,0.5,0],[0,0.75,0],[1,0.25,0],[1,0.5,0],[1,0.75,0]];outlineConnect=0;fontColor=#232F3E;gradientColor=#945DF2;gradientDirection=north;fillColor=#5A30B5;strokeColor=#ffffff;dashed=0;verticalLabelPosition=bottom;verticalAlign=top;align=center;html=1;fontSize=12;fontStyle=0;aspect=fixed;shape=mxgraph.aws4.resourceIcon;resIcon=mxgraph.aws4.site_to_site_vpn;" parent="1" vertex="1">
          <mxGeometry x="920" y="331" width="78" height="78" as="geometry" />
        </mxCell>
        <mxCell id="kDWH9W8BgqDENdvICi3f-115" value="plus vpn" style="text;html=1;strokeColor=none;fillColor=none;align=center;verticalAlign=middle;whiteSpace=wrap;rounded=0;" parent="1" vertex="1">
          <mxGeometry x="936.35" y="290" width="45.3" height="30" as="geometry" />
        </mxCell>
        <mxCell id="kDWH9W8BgqDENdvICi3f-124" value="217.67.214.145" style="text;html=1;strokeColor=none;fillColor=none;align=center;verticalAlign=middle;whiteSpace=wrap;rounded=0;fontSize=10;" parent="1" vertex="1">
          <mxGeometry x="563.4" y="530" width="77.5" height="30" as="geometry" />
        </mxCell>
        <mxCell id="kDWH9W8BgqDENdvICi3f-132" value="" style="sketch=0;points=[[0.015,0.015,0],[0.985,0.015,0],[0.985,0.985,0],[0.015,0.985,0],[0.25,0,0],[0.5,0,0],[0.75,0,0],[1,0.25,0],[1,0.5,0],[1,0.75,0],[0.75,1,0],[0.5,1,0],[0.25,1,0],[0,0.75,0],[0,0.5,0],[0,0.25,0]];verticalLabelPosition=bottom;html=1;verticalAlign=top;aspect=fixed;align=center;pointerEvents=1;shape=mxgraph.cisco19.rect;prIcon=hypervisor;fillColor=#FAFAFA;strokeColor=#005073;" parent="1" vertex="1">
          <mxGeometry x="288.89999999999986" y="1194.5" width="50" height="65" as="geometry" />
        </mxCell>
        <mxCell id="kDWH9W8BgqDENdvICi3f-133" value="CompXen1" style="text;html=1;strokeColor=none;fillColor=none;align=center;verticalAlign=middle;whiteSpace=wrap;rounded=0;fontSize=8;" parent="1" vertex="1">
          <mxGeometry x="283.89999999999986" y="1254.5" width="60" height="30" as="geometry" />
        </mxCell>
        <mxCell id="kDWH9W8BgqDENdvICi3f-134" value="" style="sketch=0;points=[[0.015,0.015,0],[0.985,0.015,0],[0.985,0.985,0],[0.015,0.985,0],[0.25,0,0],[0.5,0,0],[0.75,0,0],[1,0.25,0],[1,0.5,0],[1,0.75,0],[0.75,1,0],[0.5,1,0],[0.25,1,0],[0,0.75,0],[0,0.5,0],[0,0.25,0]];verticalLabelPosition=bottom;html=1;verticalAlign=top;aspect=fixed;align=center;pointerEvents=1;shape=mxgraph.cisco19.rect;prIcon=hypervisor;fillColor=#FAFAFA;strokeColor=#005073;" parent="1" vertex="1">
          <mxGeometry x="348.89999999999986" y="1194.5" width="50" height="65" as="geometry" />
        </mxCell>
        <mxCell id="kDWH9W8BgqDENdvICi3f-135" value="CompXen2" style="text;html=1;strokeColor=none;fillColor=none;align=center;verticalAlign=middle;whiteSpace=wrap;rounded=0;fontSize=8;" parent="1" vertex="1">
          <mxGeometry x="343.89999999999986" y="1254.5" width="60" height="30" as="geometry" />
        </mxCell>
        <mxCell id="kDWH9W8BgqDENdvICi3f-136" value="" style="sketch=0;points=[[0.015,0.015,0],[0.985,0.015,0],[0.985,0.985,0],[0.015,0.985,0],[0.25,0,0],[0.5,0,0],[0.75,0,0],[1,0.25,0],[1,0.5,0],[1,0.75,0],[0.75,1,0],[0.5,1,0],[0.25,1,0],[0,0.75,0],[0,0.5,0],[0,0.25,0]];verticalLabelPosition=bottom;html=1;verticalAlign=top;aspect=fixed;align=center;pointerEvents=1;shape=mxgraph.cisco19.rect;prIcon=hypervisor;fillColor=#FAFAFA;strokeColor=#005073;" parent="1" vertex="1">
          <mxGeometry x="408.89999999999986" y="1194.5" width="50" height="65" as="geometry" />
        </mxCell>
        <mxCell id="kDWH9W8BgqDENdvICi3f-137" value="CompXen3" style="text;html=1;strokeColor=none;fillColor=none;align=center;verticalAlign=middle;whiteSpace=wrap;rounded=0;fontSize=8;" parent="1" vertex="1">
          <mxGeometry x="403.89999999999986" y="1254.5" width="60" height="30" as="geometry" />
        </mxCell>
        <mxCell id="kDWH9W8BgqDENdvICi3f-138" value="" style="sketch=0;points=[[0.015,0.015,0],[0.985,0.015,0],[0.985,0.985,0],[0.015,0.985,0],[0.25,0,0],[0.5,0,0],[0.75,0,0],[1,0.25,0],[1,0.5,0],[1,0.75,0],[0.75,1,0],[0.5,1,0],[0.25,1,0],[0,0.75,0],[0,0.5,0],[0,0.25,0]];verticalLabelPosition=bottom;html=1;verticalAlign=top;aspect=fixed;align=center;pointerEvents=1;shape=mxgraph.cisco19.rect;prIcon=hypervisor;fillColor=#FAFAFA;strokeColor=#005073;" parent="1" vertex="1">
          <mxGeometry x="487.2999999999999" y="1190" width="50" height="65" as="geometry" />
        </mxCell>
        <mxCell id="kDWH9W8BgqDENdvICi3f-139" value="CompXen4" style="text;html=1;strokeColor=none;fillColor=none;align=center;verticalAlign=middle;whiteSpace=wrap;rounded=0;fontSize=8;" parent="1" vertex="1">
          <mxGeometry x="482.2999999999999" y="1250" width="60" height="30" as="geometry" />
        </mxCell>
        <mxCell id="kDWH9W8BgqDENdvICi3f-144" style="edgeStyle=orthogonalEdgeStyle;rounded=0;orthogonalLoop=1;jettySize=auto;html=1;exitX=0.834;exitY=-0.024;exitDx=0;exitDy=0;entryX=0.394;entryY=1.025;entryDx=0;entryDy=0;entryPerimeter=0;startArrow=oval;startFill=1;endArrow=oval;endFill=1;exitPerimeter=0;" parent="1" source="kDWH9W8BgqDENdvICi3f-140" target="kDWH9W8BgqDENdvICi3f-99" edge="1">
          <mxGeometry relative="1" as="geometry">
            <Array as="points">
              <mxPoint x="510" y="1092" />
              <mxPoint x="647" y="1092" />
            </Array>
          </mxGeometry>
        </mxCell>
        <mxCell id="kDWH9W8BgqDENdvICi3f-141" value="Xen Cluster" style="text;html=1;strokeColor=none;fillColor=none;align=center;verticalAlign=middle;whiteSpace=wrap;rounded=0;" parent="1" vertex="1">
          <mxGeometry x="190" y="1212" width="79" height="30" as="geometry" />
        </mxCell>
        <mxCell id="kDWH9W8BgqDENdvICi3f-155" value="" style="sketch=0;aspect=fixed;pointerEvents=1;shadow=0;dashed=0;html=1;strokeColor=none;labelPosition=center;verticalLabelPosition=bottom;verticalAlign=top;align=center;fillColor=#00188D;shape=mxgraph.mscae.enterprise.router" parent="1" vertex="1">
          <mxGeometry x="199.16" y="870" width="89.74" height="70" as="geometry" />
        </mxCell>
        <mxCell id="kDWH9W8BgqDENdvICi3f-157" value="Mikrotik Routerboard" style="text;html=1;strokeColor=none;fillColor=none;align=center;verticalAlign=middle;whiteSpace=wrap;rounded=0;" parent="1" vertex="1">
          <mxGeometry x="81.85000000000002" y="890" width="130.3" height="30" as="geometry" />
        </mxCell>
        <mxCell id="kDWH9W8BgqDENdvICi3f-158" value="217.67.214.147" style="text;html=1;strokeColor=none;fillColor=none;align=center;verticalAlign=middle;whiteSpace=wrap;rounded=0;fontSize=10;" parent="1" vertex="1">
          <mxGeometry x="166.09" y="830" width="77.5" height="30" as="geometry" />
        </mxCell>
        <mxCell id="kDWH9W8BgqDENdvICi3f-159" value="192.168.1.1" style="text;html=1;strokeColor=none;fillColor=none;align=center;verticalAlign=middle;whiteSpace=wrap;rounded=0;fontSize=10;" parent="1" vertex="1">
          <mxGeometry x="174.61" y="950" width="60.45" height="30" as="geometry" />
        </mxCell>
        <mxCell id="kDWH9W8BgqDENdvICi3f-160" value="217.67.214.153" style="text;html=1;strokeColor=none;fillColor=none;align=center;verticalAlign=middle;whiteSpace=wrap;rounded=0;fontSize=10;" parent="1" vertex="1">
          <mxGeometry x="633.8" y="588.5" width="99.1" height="30" as="geometry" />
        </mxCell>
        <mxCell id="kDWH9W8BgqDENdvICi3f-161" value="&lt;div&gt;217.67.214.154&lt;/div&gt;&lt;div&gt;217.67.214.155&lt;br&gt;&lt;/div&gt;" style="text;html=1;strokeColor=none;fillColor=none;align=center;verticalAlign=middle;whiteSpace=wrap;rounded=0;fontSize=10;" parent="1" vertex="1">
          <mxGeometry x="633.8" y="710.5" width="99.1" height="30" as="geometry" />
        </mxCell>
        <mxCell id="uT-9iHjgvGPlK6MO0-Yi-3" value="" style="endArrow=none;html=1;rounded=0;entryX=0.325;entryY=0.772;entryDx=0;entryDy=0;entryPerimeter=0;" parent="1" target="kDWH9W8BgqDENdvICi3f-155" edge="1">
          <mxGeometry width="50" height="50" relative="1" as="geometry">
            <mxPoint x="310" y="1190" as="sourcePoint" />
            <mxPoint x="338.9" y="980" as="targetPoint" />
          </mxGeometry>
        </mxCell>
        <mxCell id="uT-9iHjgvGPlK6MO0-Yi-4" value="" style="endArrow=none;html=1;rounded=0;entryX=0.421;entryY=0.729;entryDx=0;entryDy=0;entryPerimeter=0;" parent="1" target="kDWH9W8BgqDENdvICi3f-155" edge="1">
          <mxGeometry width="50" height="50" relative="1" as="geometry">
            <mxPoint x="370" y="1190" as="sourcePoint" />
            <mxPoint x="281" y="720" as="targetPoint" />
          </mxGeometry>
        </mxCell>
        <mxCell id="uT-9iHjgvGPlK6MO0-Yi-5" value="" style="endArrow=none;html=1;rounded=0;entryX=0.567;entryY=0.749;entryDx=0;entryDy=0;entryPerimeter=0;exitX=0.535;exitY=0.141;exitDx=0;exitDy=0;exitPerimeter=0;" parent="1" source="kDWH9W8BgqDENdvICi3f-140" target="kDWH9W8BgqDENdvICi3f-155" edge="1">
          <mxGeometry width="50" height="50" relative="1" as="geometry">
            <mxPoint x="380" y="1200" as="sourcePoint" />
            <mxPoint x="304" y="710" as="targetPoint" />
          </mxGeometry>
        </mxCell>
        <mxCell id="uT-9iHjgvGPlK6MO0-Yi-6" value="" style="rounded=0;whiteSpace=wrap;html=1;fillColor=none;dashed=1;" parent="1" vertex="1">
          <mxGeometry x="280.6" y="1184.5" width="189.4" height="95.5" as="geometry" />
        </mxCell>
        <mxCell id="uT-9iHjgvGPlK6MO0-Yi-7" value="" style="verticalLabelPosition=bottom;html=1;verticalAlign=top;align=center;strokeColor=none;fillColor=#00BEF2;shape=mxgraph.azure.virtual_machine;" parent="1" vertex="1">
          <mxGeometry x="352.29999999999995" y="1360" width="50" height="40" as="geometry" />
        </mxCell>
        <mxCell id="uT-9iHjgvGPlK6MO0-Yi-8" value="" style="endArrow=oval;html=1;rounded=0;entryX=0.524;entryY=1.033;entryDx=0;entryDy=0;entryPerimeter=0;startArrow=oval;startFill=1;endFill=1;exitX=0.556;exitY=-0.007;exitDx=0;exitDy=0;exitPerimeter=0;" parent="1" source="uT-9iHjgvGPlK6MO0-Yi-7" target="uT-9iHjgvGPlK6MO0-Yi-6" edge="1">
          <mxGeometry width="50" height="50" relative="1" as="geometry">
            <mxPoint x="370" y="1360" as="sourcePoint" />
            <mxPoint x="420" y="1310" as="targetPoint" />
          </mxGeometry>
        </mxCell>
        <mxCell id="uT-9iHjgvGPlK6MO0-Yi-9" value="&lt;div&gt;voipserver1&lt;/div&gt;" style="text;html=1;strokeColor=none;fillColor=none;align=center;verticalAlign=middle;whiteSpace=wrap;rounded=0;fontSize=8;" parent="1" vertex="1">
          <mxGeometry x="348.7" y="1400" width="60" height="20" as="geometry" />
        </mxCell>
        <mxCell id="uT-9iHjgvGPlK6MO0-Yi-10" value="192.168.1.2" style="text;html=1;strokeColor=none;fillColor=none;align=center;verticalAlign=middle;whiteSpace=wrap;rounded=0;fontSize=10;" parent="1" vertex="1">
          <mxGeometry x="313.4" y="1330" width="60.45" height="30" as="geometry" />
        </mxCell>
        <mxCell id="uT-9iHjgvGPlK6MO0-Yi-13" value="192.168.194.18" style="text;html=1;strokeColor=none;fillColor=none;align=center;verticalAlign=middle;whiteSpace=wrap;rounded=0;fontSize=10;" parent="1" vertex="1">
          <mxGeometry x="408.7" y="1380" width="74.7" height="30" as="geometry" />
        </mxCell>
        <mxCell id="Mx7TGeJzVDkl9us2TmOO-1" value="212.2.126.38" style="text;html=1;strokeColor=none;fillColor=none;align=center;verticalAlign=middle;whiteSpace=wrap;rounded=0;fontSize=10;" vertex="1" parent="1">
          <mxGeometry x="880" y="409" width="74.7" height="30" as="geometry" />
        </mxCell>
        <mxCell id="Mx7TGeJzVDkl9us2TmOO-2" value="192.168.194.17" style="text;html=1;strokeColor=none;fillColor=none;align=center;verticalAlign=middle;whiteSpace=wrap;rounded=0;fontSize=10;" vertex="1" parent="1">
          <mxGeometry x="870" y="680.5" width="74.7" height="30" as="geometry" />
        </mxCell>
      </root>
    </mxGraphModel>
  </diagram>
</mxfile>
